<svg width="61" height="61" viewBox="0 0 61 61" fill="none" xmlns="http://www.w3.org/2000/svg">
<rect width="61" height="61" rx="16" fill="white" fill-opacity="0.1"/>
<path fill-rule="evenodd" clip-rule="evenodd" d="M13.5 12L25.5 12C26.3284 12 27 12.6716 27 13.5C27 14.3284 26.3284 15 25.5 15L15 15L15 25.5C15 26.3284 14.3284 27 13.5 27C12.6716 27 12 26.3284 12 25.5L12 13.5C12 13.1893 12.0944 12.9007 12.2562 12.6613C12.4198 12.4192 12.6522 12.2274 12.9254 12.114C13.0123 12.0779 13.1034 12.0498 13.1977 12.0305C13.2953 12.0105 13.3964 12 13.5 12Z" fill="white"/>
<path fill-rule="evenodd" clip-rule="evenodd" d="M13.4393 13.4393C14.0251 12.8536 14.9749 12.8536 15.5607 13.4393L27.4393 25.318C28.0251 25.9038 28.0251 26.8536 27.4393 27.4393C26.8536 28.0251 25.9038 28.0251 25.318 27.4393L13.4393 15.5607C12.8536 14.9749 12.8536 14.0251 13.4393 13.4393Z" fill="white"/>
<path fill-rule="evenodd" clip-rule="evenodd" d="M47.3789 48.8789L35.3789 48.8789C34.5505 48.8789 33.8789 48.2073 33.8789 47.3789C33.8789 46.5505 34.5505 45.8789 35.3789 45.8789L45.8789 45.8789L45.8789 35.3789C45.8789 34.5505 46.5505 33.8789 47.3789 33.8789C48.2073 33.8789 48.8789 34.5505 48.8789 35.3789L48.8789 47.3789C48.8789 47.6896 48.7845 47.9782 48.6227 48.2176C48.4591 48.4597 48.2267 48.6515 47.9535 48.7649C47.8666 48.801 47.7755 48.8291 47.6812 48.8484C47.5836 48.8684 47.4825 48.8789 47.3789 48.8789Z" fill="white"/>
<path fill-rule="evenodd" clip-rule="evenodd" d="M47.4396 47.4396C46.8538 48.0254 45.904 48.0254 45.3182 47.4396L33.4396 35.5609C32.8538 34.9751 32.8538 34.0254 33.4396 33.4396C34.0254 32.8538 34.9751 32.8538 35.5609 33.4396L47.4396 45.3182C48.0254 45.904 48.0254 46.8538 47.4396 47.4396Z" fill="white"/>
</svg>
