<svg width="61" height="61" viewBox="0 0 61 61" fill="none" xmlns="http://www.w3.org/2000/svg">
<rect width="61" height="61" rx="16" fill="white" fill-opacity="0.25"/>
<path fill-rule="evenodd" clip-rule="evenodd" d="M18.5 29C17.6716 29 17 29.6716 17 30.5C17 31.3284 17.6716 32 18.5 32L29 32L29 42.5C29 43.3284 29.6716 44 30.5 44C31.3284 44 32 43.3284 32 42.5L32 32L42.5 32C43.3284 32 44 31.3284 44 30.5C44 29.6716 43.3284 29 42.5 29L32 29L32 18.5C32 17.6716 31.3284 17 30.5 17C29.6716 17 29 17.6716 29 18.5L29 29L18.5 29Z" fill="white"/>
</svg>
