<svg width="198" height="25" viewBox="0 0 198 25" fill="none" xmlns="http://www.w3.org/2000/svg">
<path d="M196 2V19.6933C196 21.3502 194.657 22.6933 193 22.6933H99H5C3.34315 22.6933 2 21.3502 2 19.6933V2" stroke="white" stroke-width="3" stroke-linecap="round"/>
<path d="M42.3 12.4844C42.3 11.656 41.6285 10.9844 40.8 10.9844C39.9716 10.9844 39.3 11.656 39.3 12.4844H42.3ZM42.3 23.6933V12.4844H39.3V23.6933H42.3Z" fill="white"/>
<path d="M81.1 12.4844C81.1 11.656 80.4284 10.9844 79.6 10.9844C78.7715 10.9844 78.1 11.656 78.1 12.4844H81.1ZM81.1 23.6933V12.4844H78.1V23.6933H81.1Z" fill="white"/>
<path d="M119.9 12.4844C119.9 11.656 119.228 10.9844 118.4 10.9844C117.572 10.9844 116.9 11.656 116.9 12.4844H119.9ZM119.9 23.6933V12.4844H116.9V23.6933H119.9Z" fill="white"/>
<path d="M158.7 12.4844C158.7 11.656 158.028 10.9844 157.2 10.9844C156.372 10.9844 155.7 11.656 155.7 12.4844H158.7ZM158.7 23.6933V12.4844H155.7V23.6933H158.7Z" fill="white"/>
</svg>
